<!-- Generated by IcoMoon.io -->
<svg version="1.1" xmlns="http://www.w3.org/2000/svg" width="640" height="640" viewBox="0 0 640 640">
<title></title>
<g id="icomoon-ignore">
</g>
<path d="M524.8 288h-409.6c-17.664 0-19.2 14.304-19.2 32s1.536 32 19.2 32h409.6c17.664 0 19.2-14.304 19.2-32s-1.536-32-19.2-32zM524.8 416h-409.6c-17.664 0-19.2 14.304-19.2 32s1.536 32 19.2 32h409.6c17.664 0 19.2-14.304 19.2-32s-1.536-32-19.2-32zM115.2 224h409.6c17.664 0 19.2-14.304 19.2-32s-1.536-32-19.2-32h-409.6c-17.664 0-19.2 14.304-19.2 32s1.536 32 19.2 32z"></path>
</svg>
